PathFileType	4	(X/Y/Z)	H:\MAC\Pilotos\MDrajagopal3\Trimmed_runO3.trc
DataRate	CameraRate	NumFrames	NumMarkers	Units	OrigDataRate	OrigDataStartFrame	OrigNumFrames
150.00	150.00	       5	78	mm	150.00	1	       123
Frame#	Time	RACR			LACR			C7			CLAV			RASH			RPSH			LASH			LPSH			RUA1			RUA2			RUA3			RLEL			RMEL			RFAsuperior			RFAradius			RFAulna			LUA1			LUA2			LUA3			LLEL			LMEL			LFAsuperior			LFAradius			LFAulna			RASI			LASI			RPSI			LPSI			RTH1			RTH2			RTH3			RLFC			RMFC			RTB1			RTB2			RTB3			RLMAL			RMMAL			RCAL			RTOE			RMT5			LTH1			LTH2			LTH3			LLFC			LMFC			LTB1			LTB2			LTB3			LLMAL			LMMAL			LCAL			LTOE			LMT5			RSJC			LSJC			RHJC			LHJC			RKJC			LKJC			RAJC			LAJC			REJC			LEJC			Mid_ASIS			Mid_PSIS			RASHv			RPSHv			LPSHv			RLFCv			RMFCv			RLMALv			RMMALv			LLFCv			LMFCv			LLMALv			LMMALv			LASHv			
		X1	Y1	Z1	X2	Y2	Z2	X3	Y3	Z3	X4	Y4	Z4	X5	Y5	Z5	X6	Y6	Z6	X7	Y7	Z7	X8	Y8	Z8	X9	Y9	Z9	X10	Y10	Z10	X11	Y11	Z11	X12	Y12	Z12	X13	Y13	Z13	X14	Y14	Z14	X15	Y15	Z15	X16	Y16	Z16	X17	Y17	Z17	X18	Y18	Z18	X19	Y19	Z19	X20	Y20	Z20	X21	Y21	Z21	X22	Y22	Z22	X23	Y23	Z23	X24	Y24	Z24	X25	Y25	Z25	X26	Y26	Z26	X27	Y27	Z27	X28	Y28	Z28	X29	Y29	Z29	X30	Y30	Z30	X31	Y31	Z31	X32	Y32	Z32	X33	Y33	Z33	X34	Y34	Z34	X35	Y35	Z35	X36	Y36	Z36	X37	Y37	Z37	X38	Y38	Z38	X39	Y39	Z39	X40	Y40	Z40	X41	Y41	Z41	X42	Y42	Z42	X43	Y43	Z43	X44	Y44	Z44	X45	Y45	Z45	X46	Y46	Z46	X47	Y47	Z47	X48	Y48	Z48	X49	Y49	Z49	X50	Y50	Z50	X51	Y51	Z51	X52	Y52	Z52	X53	Y53	Z53	X54	Y54	Z54	X55	Y55	Z55	X56	Y56	Z56	X57	Y57	Z57	X58	Y58	Z58	X59	Y59	Z59	X60	Y60	Z60	X61	Y61	Z61	X62	Y62	Z62	X63	Y63	Z63	X64	Y64	Z64	X65	Y65	Z65	X66	Y66	Z66	X67	Y67	Z67	X68	Y68	Z68	X69	Y69	Z69	X70	Y70	Z70	X71	Y71	Z71	X72	Y72	Z72	X73	Y73	Z73	X74	Y74	Z74	X75	Y75	Z75	X76	Y76	Z76	X77	Y77	Z77	X78	Y78	Z78	

1	0.000	-29.96947	1430.34631	-94.01600	45.20057	1424.73914	-404.04486	-55.19878	1437.76746	-263.85999	75.12898	1370.45752	-186.55106													-109.48244	1368.95178	-21.47985	-135.76134	1289.95654	-13.29760	-210.16988	1334.02405	-53.00005	-236.30345	1283.25195	-8.80144	-227.14351	1244.98340	-82.14450	-190.79742	1153.69910	12.32019	-184.56218	1059.76135	13.31122	-247.38632	1047.73975	50.47167	67.25556	1333.01367	-478.93921	93.33510	1242.29041	-487.58817	2.82895	1228.90808	-511.32809	66.31617	1172.25317	-529.97748	-4.54272	1131.72144	-474.81512	152.56059	1182.86658	-426.03308	169.63823	1190.14648	-349.39264	214.51389	1140.38538	-369.78650	37.30617	909.77039	-161.91151	-7.39216	907.02527	-381.67340	-141.54720	959.17999	-191.71236	-156.48331	964.46460	-272.41205	-24.32747	811.72260	-87.14523	-18.50863	645.73364	-131.96626	60.84108	637.44525	-122.75165							154.80009	391.50388	-209.34351	86.78795	345.90237	-136.10265	143.53357	234.51010	-180.69409							75.41734	58.39526	-237.87460	243.30368	80.02853	-194.00859	275.32758	95.60094	-233.15161	-136.99582	845.98224	-407.35767	-226.76364	728.51910	-370.99835	-220.22842	641.10364	-408.80164							-277.43323	405.61026	-380.87808	-402.10309	431.81976	-400.79953	-410.45096	285.88959	-390.78482							-536.20135	246.39439	-322.33774	-483.77643	65.53225	-377.21640	-517.43964	85.89945	-402.48984																									-231.72348	1264.11768	-45.47297	30.88673	1151.98730	-502.39630	14.95701	908.39783	-271.79245	-149.01526	961.82233	-232.06221	-15.70942	1307.08008	-25.26535	-72.13229	1404.22156	-54.81565	101.86192	1418.33447	-422.79135	66.63421	529.93732	-124.47788	105.08266	528.93555	-255.53346	144.03116	92.97593	-163.74442	159.82129	108.43594	-252.70662	-250.08070	576.89508	-441.66669	-196.86185	524.38306	-331.54526	-510.42773	203.74989	-393.67148	-440.23984	177.97038	-340.10468	188.95068	1368.60730	-406.29379	
2	0.007	-13.25813	1429.02905	-91.98159	63.71119	1425.55859	-401.54602	-37.54788	1437.55188	-262.21164	92.33698	1370.42590	-184.40886													-92.81636	1366.57263	-20.89364	-118.20097	1287.01685	-12.55923	-192.69992	1330.64307	-53.45717	-218.61978	1279.53271	-9.01833	-208.23952	1241.40881	-81.89289	-171.15692	1150.86035	13.77809	-162.58441	1057.10437	15.92865	-226.36697	1043.69702	51.05205	84.91263	1334.89880	-477.50912	110.39111	1245.11890	-488.14774	19.60544	1232.28357	-510.90240	82.26865	1174.90405	-531.11804	10.87826	1134.55493	-476.39697	168.42351	1183.38354	-426.57452	185.39986	1189.64709	-349.95135	229.42651	1139.67004	-370.60608	54.97792	909.63147	-161.55338	12.44986	907.15900	-381.61252	-123.13264	957.94940	-192.30908	-137.60435	963.71802	-272.87799	-7.07971	809.78278	-87.49673	-2.55582	643.31378	-132.82997	76.36490	633.95728	-121.20972							171.02463	389.24023	-208.33176	101.33314	343.08157	-136.73012	160.77238	232.79564	-180.50330							95.47997	56.43186	-239.68269	295.20020	94.85859	-231.21306	262.44849	79.26025	-192.94852	-116.45826	845.00916	-408.31442	-205.18713	727.04413	-372.37509	-197.32777	639.25513	-410.17499							-258.36066	404.09634	-379.46835	-381.72540	434.18546	-400.75702	-395.99442	289.25525	-388.52164							-522.38281	255.91843	-316.79474	-480.41385	74.34990	-377.57098	-512.87170	96.68168	-401.65475																									-213.42966	1260.47083	-45.45561	46.57345	1154.72949	-503.75751	33.71389	908.39520	-271.58295	-130.36850	960.83368	-232.59354	1.56076	1305.55823	-23.34664	-55.58055	1402.17371	-54.00437	120.51474	1419.04504	-420.22278	80.45293	526.68390	-123.04620	122.78344	525.44470	-252.89783	161.30060	90.66319	-162.81938	179.29694	106.19586	-251.34894	-226.70816	574.75891	-442.70868	-173.82706	523.06445	-332.03906	-498.07986	210.17097	-390.66501	-429.20639	182.91283	-336.13281	207.68567	1368.79810	-405.87402	
3	0.013	3.62798	1426.97876	-89.53654	82.03828	1425.72058	-399.24475	-19.98278	1436.82532	-260.44452	110.07111	1370.36047	-182.47929													-76.00341	1363.25964	-19.83768	-100.05097	1282.93665	-11.46169	-174.92735	1325.98877	-52.79586	-200.25946	1274.39001	-8.41252	-189.03021	1236.32837	-81.21387	-150.94896	1146.60461	15.69621	-139.89140	1053.26135	18.69953	-204.37570	1038.47778	52.03181	101.93377	1335.83252	-476.31717	126.59088	1247.24561	-489.13312	35.59726	1234.89343	-510.44437	97.51210	1176.89807	-532.27557	25.64735	1136.82837	-477.70682	183.67708	1182.66943	-427.29300	200.93623	1188.02173	-350.78952	244.01506	1137.57996	-371.68829	73.40987	909.22174	-161.08525	32.52443	906.98724	-381.38873	-104.87036	956.11078	-192.96802	-118.90290	962.31024	-273.48999	9.86496	807.33215	-87.85059	13.34833	641.07220	-133.65466	91.79491	629.80481	-119.61788							186.89056	386.64682	-207.25761	114.60836	340.36325	-138.22540	176.17708	230.69746	-180.55756							112.15732	54.68065	-241.65398	311.87393	92.58643	-228.29601	277.95319	77.02760	-191.37103	-95.50103	843.41119	-409.57333	-183.09100	724.47949	-374.29633	-173.38069	636.36414	-412.07721							-238.54979	402.00317	-377.94897	-360.53198	436.04550	-400.84924	-380.82251	292.38474	-385.63068							-508.37576	265.22516	-311.57202	-474.54126	83.55956	-377.02631	-506.13852	107.87951	-400.28824																									-194.64484	1255.35913	-44.81319	61.57973	1156.86328	-504.99121	52.96715	908.10449	-271.23700	-111.88663	959.21051	-233.22900	19.26420	1303.62891	-21.85620	-39.29974	1399.49756	-52.85163	138.91035	1418.65771	-417.98593	94.19609	523.04584	-121.61861	140.79875	521.61377	-249.99692	175.52870	88.01047	-162.52040	196.70578	103.65906	-250.32283	-201.88470	571.66681	-444.36844	-149.63455	520.99414	-332.92926	-485.09677	216.70230	-386.66022	-417.64185	188.20357	-331.00070	226.14993	1367.83911	-406.31796	
4	0.020	20.56104	1424.39722	-86.83084	99.98402	1425.32202	-397.10297	-2.51301	1435.66125	-258.68301	127.12727	1369.16785	-180.39763													-58.80021	1358.87170	-18.29931	-81.24050	1277.75317	-10.11231	-156.73145	1319.89246	-51.35856	-181.42265	1267.84509	-7.22406	-169.46043	1229.89636	-80.10586	-130.07565	1140.96741	17.95842	-116.19893	1048.54248	21.60913	-181.58572	1032.09937	53.25690	118.29325	1336.01636	-475.33545	142.06615	1248.41541	-490.27853	50.79021	1236.73132	-509.91293	112.06473	1178.10608	-533.25885	39.82981	1138.66296	-478.66058	198.52208	1180.84363	-428.32431	216.23145	1185.23218	-351.84955	257.96362	1134.00610	-373.01453	90.62202	908.58032	-160.18985	52.73902	906.44312	-381.08453	-86.77177	953.78180	-193.88518	-100.17643	960.30865	-274.36826	25.91669	804.69165	-88.10765	29.69103	638.62390	-134.22163	107.24354	625.71527	-117.69848							202.29893	383.71854	-206.03952	127.74129	337.62738	-139.22643	189.48146	228.08475	-180.56061							125.41046	53.03475	-244.10255	290.03015	73.30747	-189.80301	325.42288	88.38689	-224.87776	-74.15950	841.15436	-411.13879	-160.72890	720.98541	-376.80304	-148.80438	632.49927	-414.11719							-218.02971	399.43347	-376.47098	-338.62491	437.42291	-401.03317	-365.21860	295.41632	-382.72574							-494.19916	274.77966	-307.27881	-466.14404	92.97802	-375.21341	-497.10175	118.67001	-398.35620																									-175.44154	1248.87073	-43.66496	75.94727	1158.38452	-505.95972	71.68052	907.51172	-270.63718	-93.47410	957.04523	-234.12671	37.60683	1301.10632	-20.45957	-22.85826	1395.95801	-51.20900	156.84270	1417.51563	-416.16095	109.06948	519.80029	-119.62326	160.30927	518.32007	-246.22162	187.21327	84.93488	-163.43752	210.89047	100.91297	-250.53922	-175.79736	567.65381	-446.35803	-124.94870	518.39691	-333.64310	-471.21912	223.20287	-382.43842	-405.19977	193.58578	-325.65286	244.08102	1366.12610	-407.32950	
5	0.027	37.59886	1421.12207	-83.91647	117.64608	1424.43176	-395.09421	14.92095	1434.07971	-256.67841	144.24802	1367.43555	-178.34535													-41.31590	1353.48145	-16.39087	-61.96772	1271.64795	-8.47992	-138.62070	1312.70508	-49.12883	-162.27025	1260.11694	-5.50017	-149.48911	1222.27930	-78.59010	-108.70363	1134.39319	20.56318	-92.30058	1042.49341	24.32360	-157.89149	1024.65527	54.94087	134.17570	1335.61035	-474.50064	157.01291	1248.86133	-491.63748	65.22522	1237.91296	-509.21765	125.84721	1178.63135	-534.16064	53.46367	1140.03552	-479.36035	213.20010	1177.99927	-429.67441	231.15001	1181.33264	-352.98096	271.59622	1129.19141	-374.60281	107.82036	907.61700	-158.94786	72.98151	905.47040	-380.68127	-68.89368	950.99927	-194.99947	-81.58713	957.77899	-275.55136	42.04652	801.53546	-88.41013	46.01651	635.80542	-135.04672	122.11736	621.27448	-116.97752							217.01468	380.43192	-204.74301	139.98122	334.98758	-140.00140	201.22287	224.83228	-180.49863							135.83403	51.22959	-246.61989	336.03961	83.07595	-221.44177	299.28928	68.32643	-188.10989	-52.40797	838.15063	-412.96909	-138.14166	716.57281	-379.65591	-123.73320	627.75348	-416.08920							-196.88188	396.56671	-375.26508	-315.98605	438.44781	-401.46185	-348.95514	298.52084	-379.80289							-479.33884	284.37473	-303.67313	-455.65341	102.11727	-372.03027	-486.08673	128.85907	-395.60956																									-155.87968	1241.19812	-42.04514	89.65544	1159.33350	-506.76050	90.40093	906.54370	-269.81458	-75.24040	954.38910	-235.27541	56.23441	1297.70996	-19.43907	-6.39907	1391.51929	-49.31817	174.54868	1415.76404	-414.70740	124.18217	516.22565	-118.78677	178.92473	514.91107	-243.91222	196.47665	81.66602	-164.35352	222.58694	97.78876	-250.73016	-148.82355	562.78253	-448.31955	-100.03234	515.27893	-333.95474	-456.51251	229.88535	-377.90292	-391.89261	199.31705	-320.02228	261.75015	1363.86414	-409.07550	
